<svg xmlns="http://www.w3.org/2000/svg" version="1.1" xmlns:xlink="http://www.w3.org/1999/xlink" xmlns:svgjs="http://svgjs.dev/svgjs" width="1500" height="1518" viewBox="0 0 1500 1518"><g transform="matrix(1,0,0,1,1.325901639344238,0.6145748987853494)"><svg viewBox="0 0 244 247" data-background-color="#272525" preserveAspectRatio="xMidYMid meet" height="1518" width="1500" xmlns="http://www.w3.org/2000/svg" xmlns:xlink="http://www.w3.org/1999/xlink"><g id="tight-bounds" transform="matrix(1,0,0,1,-0.21567999999999188,-0.09999999999999432)"><svg viewBox="0 0 244.43135999999998 247.2" height="247.2" width="244.43135999999998"><g><svg></svg></g><g><svg viewBox="0 0 244.43135999999998 247.2" height="247.2" width="244.43135999999998"><g transform="matrix(1,0,0,1,0,74.95123758928156)"><svg viewBox="0 0 244.43135999999998 97.29752482143687" height="97.29752482143687" width="244.43135999999998"><g><svg viewBox="0 0 244.43135999999998 97.29752482143687" height="97.29752482143687" width="244.43135999999998"><g><svg viewBox="0 0 244.43135999999998 97.29752482143687" height="97.29752482143687" width="244.43135999999998"><g><svg viewBox="0 0 244.43135999999998 97.29752482143687" height="97.29752482143687" width="244.43135999999998"><g id="textblocktransform"><svg viewBox="0 0 244.43135999999998 97.29752482143687" height="97.29752482143687" width="244.43135999999998" id="textblock"><g><svg viewBox="0 0 244.43135999999998 65.11386905306972" height="65.11386905306972" width="244.43135999999998"><g transform="matrix(1,0,0,1,0,0)"><svg width="244.43135999999998" viewBox="0.1 -36.87 140.76000000000002 37.5" height="65.11386905306972" data-palette-color="#e0d6de"><path d="M15.58-30.62L4.74 0 0.1 0 13.48-36.38 18.02-36.38 31.35 0 26.76 0 15.87-30.62 15.58-30.62ZM6.45-10.3L6.45-14.21 25.05-14.21 25.05-10.3 6.45-10.3ZM56 0L34.67 0 34.67-36.38 39.06-36.38 39.06-3.91 56-3.91 56 0ZM70.45-14.99L57.32-36.38 62.35-36.38 72.46-19.38 72.9-19.38 82.95-36.38 88.03-36.38 74.85-14.99 74.85 0 70.45 0 70.45-14.99ZM102.87 0.63L102.87 0.63Q98.97 0.63 96.11-0.62 93.25-1.88 91.63-4.14 90.01-6.4 89.79-9.38L89.79-9.38 94.33-9.38Q94.52-7.32 95.73-5.98 96.94-4.64 98.82-3.98 100.7-3.32 102.87-3.32L102.87-3.32Q105.39-3.32 107.4-4.15 109.42-4.98 110.59-6.47 111.76-7.96 111.76-9.96L111.76-9.96Q111.76-11.77 110.73-12.89 109.71-14.01 108.06-14.72 106.41-15.43 104.48-15.97L104.48-15.97 100.04-17.24Q95.77-18.46 93.29-20.74 90.81-23.02 90.81-26.71L90.81-26.71Q90.81-29.76 92.46-32.04 94.11-34.33 96.93-35.6 99.75-36.87 103.22-36.87L103.22-36.87Q106.73-36.87 109.47-35.61 112.2-34.35 113.81-32.19 115.42-30.03 115.52-27.29L115.52-27.29 111.22-27.29Q110.91-29.98 108.65-31.47 106.39-32.96 103.07-32.96L103.07-32.96Q100.68-32.96 98.87-32.18 97.06-31.4 96.06-30.03 95.06-28.66 95.06-26.9L95.06-26.9Q95.06-24.98 96.26-23.79 97.45-22.61 99.1-21.95 100.75-21.29 102.09-20.9L102.09-20.9 105.75-19.87Q107.17-19.48 108.92-18.82 110.66-18.16 112.28-17.04 113.91-15.92 114.96-14.17 116.01-12.43 116.01-9.86L116.01-9.86Q116.01-6.93 114.47-4.55 112.93-2.17 110-0.77 107.07 0.63 102.87 0.63ZM128.36 0.63L128.36 0.63Q125.77 0.63 123.65-0.35 121.52-1.34 120.28-3.22 119.03-5.1 119.03-7.76L119.03-7.76Q119.03-10.11 119.96-11.56 120.89-13.01 122.44-13.85 123.99-14.7 125.86-15.11 127.72-15.53 129.63-15.77L129.63-15.77Q132.12-16.09 133.67-16.26 135.22-16.43 135.94-16.85 136.66-17.26 136.66-18.26L136.66-18.26 136.66-18.41Q136.66-21.02 135.23-22.47 133.8-23.93 130.9-23.93L130.9-23.93Q127.92-23.93 126.21-22.62 124.5-21.31 123.82-19.82L123.82-19.82 119.81-21.24Q120.89-23.73 122.68-25.12 124.48-26.51 126.59-27.08 128.7-27.64 130.75-27.64L130.75-27.64Q132.07-27.64 133.78-27.33 135.49-27.03 137.11-26.06 138.74-25.1 139.8-23.16 140.86-21.22 140.86-17.97L140.86-17.97 140.86 0 136.66 0 136.66-3.71 136.46-3.71Q136.05-2.83 135.05-1.82 134.05-0.81 132.4-0.09 130.75 0.63 128.36 0.63ZM128.99-3.13L128.99-3.13Q131.48-3.13 133.19-4.1 134.9-5.08 135.78-6.63 136.66-8.18 136.66-9.86L136.66-9.86 136.66-13.72Q136.39-13.4 135.5-13.15 134.61-12.89 133.45-12.7 132.29-12.5 131.19-12.37 130.09-12.23 129.43-12.16L129.43-12.16Q127.8-11.94 126.38-11.46 124.97-10.99 124.1-10.06 123.23-9.13 123.23-7.52L123.23-7.52Q123.23-5.35 124.86-4.24 126.48-3.13 128.99-3.13Z" opacity="1" transform="matrix(1,0,0,1,0,0)" fill="#e0d6de" class="wordmark-text-0" data-fill-palette-color="primary" id="text-0"></path></svg></g></svg></g><g transform="matrix(1,0,0,1,0,80.48569080364221)"><svg viewBox="0 0 244.43135999999998 16.81183401779466" height="16.81183401779466" width="244.43135999999998"><g transform="matrix(1,0,0,1,0,0)"><svg width="244.43135999999998" viewBox="2.56 -38.07 710.36 48.87" height="16.81183401779466" data-palette-color="#e0d6de"><path d="M11.86 0.64L11.86 0.64Q9.27 0.64 7.16-0.35 5.04-1.33 3.8-3.2 2.56-5.08 2.56-7.74L2.56-7.74Q2.56-10.09 3.48-11.55 4.4-13.01 5.95-13.85 7.49-14.68 9.37-15.1 11.24-15.52 13.14-15.77L13.14-15.77Q15.63-16.09 17.18-16.26 18.73-16.42 19.45-16.83 20.17-17.24 20.17-18.25L20.17-18.25 20.17-18.39Q20.17-21.02 18.74-22.48 17.31-23.93 14.42-23.93L14.42-23.93Q11.42-23.93 9.71-22.62 8.01-21.31 7.32-19.82L7.32-19.82 3.34-21.24Q4.4-23.72 6.19-25.12 7.97-26.51 10.09-27.07 12.22-27.63 14.28-27.63L14.28-27.63Q15.59-27.63 17.3-27.32 19.02-27.01 20.62-26.05 22.23-25.09 23.3-23.15 24.36-21.22 24.36-17.97L24.36-17.97 24.36 0 20.17 0 20.17-3.69 19.96-3.69Q19.53-2.81 18.54-1.79 17.54-0.78 15.89-0.07 14.24 0.64 11.86 0.64ZM12.5-3.13L12.5-3.13Q14.99-3.13 16.7-4.1 18.41-5.08 19.29-6.62 20.17-8.17 20.17-9.87L20.17-9.87 20.17-13.71Q19.9-13.39 19.01-13.13 18.11-12.87 16.95-12.69 15.78-12.5 14.69-12.37 13.6-12.23 12.93-12.14L12.93-12.14Q11.29-11.93 9.88-11.46 8.47-10.99 7.61-10.06 6.75-9.13 6.75-7.53L6.75-7.53Q6.75-5.34 8.37-4.23 10-3.13 12.5-3.13ZM36.22-16.41L36.22-16.41 36.22 0 32.03 0 32.03-27.27 36.08-27.27 36.08-23.01 36.43-23.01Q37.39-25.09 39.34-26.36 41.3-27.63 44.39-27.63L44.39-27.63Q47.16-27.63 49.23-26.5 51.31-25.37 52.47-23.09 53.62-20.81 53.62-17.33L53.62-17.33 53.62 0 49.43 0 49.43-17.05Q49.43-20.26 47.76-22.06 46.09-23.86 43.18-23.86L43.18-23.86Q41.17-23.86 39.6-22.99 38.03-22.12 37.12-20.45 36.22-18.79 36.22-16.41ZM69.31 0.64L69.31 0.64Q66.72 0.64 64.61-0.35 62.5-1.33 61.25-3.2 60.01-5.08 60.01-7.74L60.01-7.74Q60.01-10.09 60.93-11.55 61.86-13.01 63.4-13.85 64.95-14.68 66.82-15.1 68.69-15.52 70.59-15.77L70.59-15.77Q73.08-16.09 74.63-16.26 76.18-16.42 76.9-16.83 77.62-17.24 77.62-18.25L77.62-18.25 77.62-18.39Q77.62-21.02 76.19-22.48 74.76-23.93 71.87-23.93L71.87-23.93Q68.87-23.93 67.16-22.62 65.46-21.31 64.77-19.82L64.77-19.82 60.79-21.24Q61.86-23.72 63.64-25.12 65.42-26.51 67.55-27.07 69.67-27.63 71.73-27.63L71.73-27.63Q73.04-27.63 74.76-27.32 76.47-27.01 78.08-26.05 79.68-25.09 80.75-23.15 81.81-21.22 81.81-17.97L81.81-17.97 81.81 0 77.62 0 77.62-3.69 77.41-3.69Q76.98-2.81 75.99-1.79 75-0.78 73.34-0.07 71.69 0.64 69.31 0.64ZM69.95-3.13L69.95-3.13Q72.44-3.13 74.15-4.1 75.87-5.08 76.74-6.62 77.62-8.17 77.62-9.87L77.62-9.87 77.62-13.71Q77.36-13.39 76.46-13.13 75.56-12.87 74.4-12.69 73.24-12.5 72.15-12.37 71.05-12.23 70.38-12.14L70.38-12.14Q68.75-11.93 67.33-11.46 65.92-10.99 65.06-10.06 64.2-9.13 64.2-7.53L64.2-7.53Q64.2-5.34 65.82-4.23 67.45-3.13 69.95-3.13ZM89.48-36.36L93.67-36.36 93.67 0 89.48 0 89.48-36.36ZM104.04 10.23L104.04 10.23Q102.97 10.23 102.14 10.06 101.3 9.89 100.98 9.73L100.98 9.73 102.05 6.04Q103.58 6.43 104.75 6.32 105.92 6.21 106.83 5.28 107.75 4.35 108.51 2.27L108.51 2.27 109.29 0.14 99.21-27.27 103.75-27.27 111.28-5.54 111.57-5.54 119.1-27.27 123.64-27.27 112.06 3.98Q111.28 6.09 110.13 7.48 108.97 8.88 107.46 9.55 105.94 10.23 104.04 10.23ZM148.5-21.16L148.5-21.16 144.73-20.1Q144.38-21.04 143.69-21.94 143.01-22.83 141.84-23.42 140.67-24.01 138.84-24.01L138.84-24.01Q136.33-24.01 134.67-22.86 133.01-21.72 133.01-19.96L133.01-19.96Q133.01-18.39 134.15-17.49 135.29-16.58 137.7-15.98L137.7-15.98 141.75-14.99Q145.41-14.1 147.2-12.28 148.99-10.46 148.99-7.6L148.99-7.6Q148.99-5.26 147.65-3.41 146.31-1.56 143.92-0.5 141.52 0.57 138.34 0.57L138.34 0.57Q134.17 0.57 131.43-1.24 128.7-3.05 127.97-6.53L127.97-6.53 131.95-7.53Q132.52-5.33 134.11-4.23 135.69-3.13 138.27-3.13L138.27-3.13Q141.2-3.13 142.93-4.38 144.66-5.63 144.66-7.39L144.66-7.39Q144.66-8.81 143.67-9.77 142.67-10.74 140.61-11.22L140.61-11.22 136.07-12.29Q132.32-13.17 130.57-15.05 128.82-16.92 128.82-19.74L128.82-19.74Q128.82-22.05 130.13-23.83 131.43-25.6 133.7-26.62 135.96-27.63 138.84-27.63L138.84-27.63Q142.89-27.63 145.2-25.85 147.52-24.08 148.5-21.16ZM159.5 0L155.31 0 155.31-27.27 159.5-27.27 159.5 0ZM157.44-31.82L157.44-31.82Q156.22-31.82 155.34-32.65 154.46-33.49 154.46-34.66L154.46-34.66Q154.46-35.83 155.34-36.67 156.22-37.5 157.44-37.5L157.44-37.5Q158.67-37.5 159.55-36.67 160.43-35.83 160.43-34.66L160.43-34.66Q160.43-33.49 159.55-32.65 158.67-31.82 157.44-31.82ZM186.49-21.16L186.49-21.16 182.72-20.1Q182.37-21.04 181.69-21.94 181-22.83 179.83-23.42 178.66-24.01 176.83-24.01L176.83-24.01Q174.33-24.01 172.67-22.86 171.01-21.72 171.01-19.96L171.01-19.96Q171.01-18.39 172.14-17.49 173.28-16.58 175.69-15.98L175.69-15.98 179.74-14.99Q183.4-14.1 185.19-12.28 186.99-10.46 186.99-7.6L186.99-7.6Q186.99-5.26 185.64-3.41 184.3-1.56 181.91-0.5 179.51 0.57 176.33 0.57L176.33 0.57Q172.16 0.57 169.42-1.24 166.69-3.05 165.96-6.53L165.96-6.53 169.94-7.53Q170.51-5.33 172.1-4.23 173.69-3.13 176.26-3.13L176.26-3.13Q179.19-3.13 180.92-4.38 182.65-5.63 182.65-7.39L182.65-7.39Q182.65-8.81 181.66-9.77 180.66-10.74 178.6-11.22L178.6-11.22 174.06-12.29Q170.31-13.17 168.56-15.05 166.81-16.92 166.81-19.74L166.81-19.74Q166.81-22.05 168.12-23.83 169.42-25.6 171.69-26.62 173.95-27.63 176.83-27.63L176.83-27.63Q180.88-27.63 183.19-25.85 185.51-24.08 186.49-21.16ZM218.8 0.57L218.8 0.57Q214.86 0.57 212.01-1.18 209.16-2.93 207.62-6.08 206.09-9.23 206.09-13.42L206.09-13.42Q206.09-17.61 207.62-20.82 209.16-24.02 211.92-25.83 214.68-27.63 218.37-27.63L218.37-27.63Q220.5-27.63 222.58-26.92 224.66-26.21 226.36-24.62 228.07-23.03 229.08-20.42 230.09-17.81 230.09-13.99L230.09-13.99 230.09-12.22 209.07-12.22 209.07-15.84 225.83-15.84Q225.83-18.15 224.92-19.96 224-21.77 222.32-22.82 220.65-23.86 218.37-23.86L218.37-23.86Q215.87-23.86 214.05-22.63 212.23-21.4 211.25-19.42 210.28-17.45 210.28-15.2L210.28-15.2 210.28-12.78Q210.28-9.69 211.35-7.56 212.42-5.42 214.34-4.31 216.26-3.2 218.8-3.2L218.8-3.2Q220.45-3.2 221.79-3.67 223.13-4.14 224.11-5.09 225.08-6.04 225.62-7.46L225.62-7.46 229.67-6.32Q229.03-4.26 227.52-2.71 226.01-1.15 223.79-0.29 221.57 0.57 218.8 0.57ZM254.24-27.27L258.78-27.27 248.7 0 244.44 0 234.35-27.27 238.9-27.27 246.42-5.54 246.71-5.54 254.24-27.27ZM275.75 0.57L275.75 0.57Q271.81 0.57 268.96-1.18 266.11-2.93 264.58-6.08 263.04-9.23 263.04-13.42L263.04-13.42Q263.04-17.61 264.58-20.82 266.11-24.02 268.87-25.83 271.63-27.63 275.33-27.63L275.33-27.63Q277.46-27.63 279.54-26.92 281.61-26.21 283.32-24.62 285.02-23.03 286.03-20.42 287.05-17.81 287.05-13.99L287.05-13.99 287.05-12.22 266.02-12.22 266.02-15.84 282.79-15.84Q282.79-18.15 281.87-19.96 280.96-21.77 279.28-22.82 277.6-23.86 275.33-23.86L275.33-23.86Q272.82-23.86 271-22.63 269.18-21.4 268.21-19.42 267.23-17.45 267.23-15.2L267.23-15.2 267.23-12.78Q267.23-9.69 268.31-7.56 269.38-5.42 271.3-4.31 273.21-3.2 275.75-3.2L275.75-3.2Q277.41-3.2 278.75-3.67 280.09-4.14 281.06-5.09 282.04-6.04 282.57-7.46L282.57-7.46 286.62-6.32Q285.98-4.26 284.47-2.71 282.96-1.15 280.74-0.29 278.52 0.57 275.75 0.57ZM297.63 0L293.44 0 293.44-27.27 297.48-27.27 297.48-23.15 297.77-23.15Q298.51-25.18 300.47-26.44 302.42-27.7 304.87-27.7L304.87-27.7Q305.33-27.7 306.02-27.68 306.72-27.66 307.07-27.63L307.07-27.63 307.07-23.37Q306.86-23.42 306.1-23.54 305.35-23.65 304.52-23.65L304.52-23.65Q302.53-23.65 300.97-22.82 299.42-22 298.52-20.55 297.63-19.11 297.63-17.26L297.63-17.26 297.63 0ZM314.74 10.23L314.74 10.23Q313.67 10.23 312.84 10.06 312.01 9.89 311.69 9.73L311.69 9.73 312.75 6.04Q314.28 6.43 315.45 6.32 316.62 6.21 317.54 5.28 318.45 4.35 319.21 2.27L319.21 2.27 320 0.14 309.91-27.27 314.46-27.27 321.98-5.54 322.27-5.54 329.8-27.27 334.34-27.27 322.77 3.98Q321.98 6.09 320.83 7.48 319.68 8.88 318.16 9.55 316.64 10.23 314.74 10.23ZM337.61-27.27L351.74-27.27 351.74-23.72 337.61-23.72 337.61-27.27ZM341.73-6.68L341.73-33.81 345.92-33.81 345.92-7.81Q345.92-6.04 346.44-5.16 346.96-4.28 347.79-3.99 348.62-3.69 349.54-3.69L349.54-3.69Q350.23-3.69 350.68-3.77 351.12-3.85 351.39-3.91L351.39-3.91 352.24-0.14Q351.81 0.02 351.05 0.19 350.28 0.36 349.11 0.36L349.11 0.36Q347.34 0.36 345.64-0.41 343.95-1.17 342.84-2.73 341.73-4.3 341.73-6.68L341.73-6.68ZM362.25-16.41L362.25-16.41 362.25 0 358.06 0 358.06-36.36 362.25-36.36 362.25-23.01 362.6-23.01Q363.56-25.12 365.49-26.38 367.42-27.63 370.63-27.63L370.63-27.63Q373.42-27.63 375.51-26.52 377.61-25.41 378.77-23.13 379.93-20.85 379.93-17.33L379.93-17.33 379.93 0 375.74 0 375.74-17.05Q375.74-20.29 374.07-22.08 372.39-23.86 369.42-23.86L369.42-23.86Q367.36-23.86 365.74-22.99 364.11-22.12 363.18-20.45 362.25-18.79 362.25-16.41ZM391.79 0L387.6 0 387.6-27.27 391.79-27.27 391.79 0ZM389.73-31.82L389.73-31.82Q388.51-31.82 387.63-32.65 386.75-33.49 386.75-34.66L386.75-34.66Q386.75-35.83 387.63-36.67 388.51-37.5 389.73-37.5L389.73-37.5Q390.96-37.5 391.84-36.67 392.72-35.83 392.72-34.66L392.72-34.66Q392.72-33.49 391.84-32.65 390.96-31.82 389.73-31.82ZM403.65-16.41L403.65-16.41 403.65 0 399.46 0 399.46-27.27 403.51-27.27 403.51-23.01 403.86-23.01Q404.82-25.09 406.78-26.36 408.73-27.63 411.82-27.63L411.82-27.63Q414.59-27.63 416.67-26.5 418.74-25.37 419.9-23.09 421.05-20.81 421.05-17.33L421.05-17.33 421.05 0 416.86 0 416.86-17.05Q416.86-20.26 415.19-22.06 413.52-23.86 410.61-23.86L410.61-23.86Q408.6-23.86 407.03-22.99 405.46-22.12 404.56-20.45 403.65-18.79 403.65-16.41ZM439.73 10.8L439.73 10.8Q436.69 10.8 434.51 10.02 432.32 9.25 430.88 8 429.43 6.75 428.58 5.33L428.58 5.33 431.92 2.98Q432.48 3.73 433.35 4.7 434.22 5.66 435.74 6.38 437.26 7.1 439.73 7.1L439.73 7.1Q443.03 7.1 445.18 5.5 447.33 3.91 447.33 0.5L447.33 0.5 447.33-5.04 446.97-5.04Q446.51-4.3 445.67-3.2 444.82-2.11 443.25-1.27 441.68-0.43 439.02-0.43L439.02-0.43Q435.71-0.43 433.1-1.99 430.48-3.55 428.96-6.53 427.44-9.52 427.44-13.78L427.44-13.78Q427.44-17.97 428.91-21.08 430.39-24.2 433.02-25.91 435.64-27.63 439.09-27.63L439.09-27.63Q441.75-27.63 443.32-26.75 444.89-25.87 445.74-24.76 446.58-23.65 447.04-22.94L447.04-22.94 447.47-22.94 447.47-27.27 451.52-27.27 451.52 0.78Q451.52 4.3 449.93 6.51 448.34 8.72 445.67 9.76 442.99 10.8 439.73 10.8ZM439.59-4.19L439.59-4.19Q442.11-4.19 443.85-5.34 445.59-6.5 446.49-8.66 447.4-10.83 447.4-13.85L447.4-13.85Q447.4-16.8 446.51-19.05 445.62-21.31 443.88-22.59 442.14-23.86 439.59-23.86L439.59-23.86Q436.92-23.86 435.16-22.51 433.39-21.16 432.51-18.89 431.63-16.62 431.63-13.85L431.63-13.85Q431.63-11.01 432.53-8.83 433.42-6.66 435.19-5.42 436.96-4.19 439.59-4.19ZM484.33 0.57L484.33 0.57Q480.63 0.57 477.85-1.19 475.07-2.95 473.52-6.11 471.97-9.27 471.97-13.49L471.97-13.49Q471.97-17.76 473.52-20.93 475.07-24.11 477.85-25.87 480.63-27.63 484.33-27.63L484.33-27.63Q488.02-27.63 490.8-25.87 493.58-24.11 495.13-20.93 496.68-17.76 496.68-13.49L496.68-13.49Q496.68-9.27 495.13-6.11 493.58-2.95 490.8-1.19 488.02 0.57 484.33 0.57ZM484.33-3.2L484.33-3.2Q487.13-3.2 488.94-4.63 490.75-6.07 491.62-8.42 492.49-10.76 492.49-13.49L492.49-13.49Q492.49-16.23 491.62-18.59 490.75-20.95 488.94-22.41 487.13-23.86 484.33-23.86L484.33-23.86Q481.52-23.86 479.71-22.41 477.9-20.95 477.03-18.59 476.16-16.23 476.16-13.49L476.16-13.49Q476.16-10.76 477.03-8.42 477.9-6.07 479.71-4.63 481.52-3.2 484.33-3.2ZM500.52-27.27L515.22-27.27 515.22-23.72 500.52-23.72 500.52-27.27ZM509.11 0L504.92 0 504.92-31.04Q504.92-33.38 506.02-34.94 507.12-36.51 508.88-37.29 510.64-38.07 512.59-38.07L512.59-38.07Q514.13-38.07 515.11-37.82 516.09-37.57 516.57-37.36L516.57-37.36 515.36-33.74Q515.04-33.84 514.48-34 513.92-34.16 513.02-34.16L513.02-34.16Q510.94-34.16 510.02-33.11 509.11-32.07 509.11-30.04L509.11-30.04 509.11 0ZM539.36 0L535.17 0 535.17-27.27 539.36-27.27 539.36 0ZM537.3-31.82L537.3-31.82Q536.08-31.82 535.2-32.65 534.32-33.49 534.32-34.66L534.32-34.66Q534.32-35.83 535.2-36.67 536.08-37.5 537.3-37.5L537.3-37.5Q538.53-37.5 539.4-36.67 540.28-35.83 540.28-34.66L540.28-34.66Q540.28-33.49 539.4-32.65 538.53-31.82 537.3-31.82ZM551.22-16.41L551.22-16.41 551.22 0 547.03 0 547.03-27.27 551.08-27.27 551.08-23.01 551.43-23.01Q552.39-25.09 554.34-26.36 556.3-27.63 559.39-27.63L559.39-27.63Q562.16-27.63 564.23-26.5 566.31-25.37 567.46-23.09 568.62-20.81 568.62-17.33L568.62-17.33 568.62 0 564.43 0 564.43-17.05Q564.43-20.26 562.76-22.06 561.09-23.86 558.18-23.86L558.18-23.86Q556.17-23.86 554.6-22.99 553.03-22.12 552.12-20.45 551.22-18.79 551.22-16.41ZM574.01-27.27L588.15-27.27 588.15-23.72 574.01-23.72 574.01-27.27ZM578.13-6.68L578.13-33.81 582.32-33.81 582.32-7.81Q582.32-6.04 582.85-5.16 583.37-4.28 584.2-3.99 585.02-3.69 585.95-3.69L585.95-3.69Q586.64-3.69 587.08-3.77 587.53-3.85 587.79-3.91L587.79-3.91 588.64-0.14Q588.22 0.02 587.46 0.19 586.69 0.36 585.52 0.36L585.52 0.36Q583.74 0.36 582.05-0.41 580.35-1.17 579.24-2.73 578.13-4.3 578.13-6.68L578.13-6.68ZM605.9 0.57L605.9 0.57Q601.96 0.57 599.11-1.18 596.26-2.93 594.72-6.08 593.19-9.23 593.19-13.42L593.19-13.42Q593.19-17.61 594.72-20.82 596.26-24.02 599.02-25.83 601.78-27.63 605.47-27.63L605.47-27.63Q607.61-27.63 609.68-26.92 611.76-26.21 613.46-24.62 615.17-23.03 616.18-20.42 617.19-17.81 617.19-13.99L617.19-13.99 617.19-12.22 596.17-12.22 596.17-15.84 612.93-15.84Q612.93-18.15 612.02-19.96 611.1-21.77 609.43-22.82 607.75-23.86 605.47-23.86L605.47-23.86Q602.97-23.86 601.15-22.63 599.33-21.4 598.35-19.42 597.38-17.45 597.38-15.2L597.38-15.2 597.38-12.78Q597.38-9.69 598.45-7.56 599.53-5.42 601.44-4.31 603.36-3.2 605.9-3.2L605.9-3.2Q607.55-3.2 608.89-3.67 610.23-4.14 611.21-5.09 612.19-6.04 612.72-7.46L612.72-7.46 616.77-6.32Q616.13-4.26 614.62-2.71 613.11-1.15 610.89-0.29 608.67 0.57 605.9 0.57ZM627.77 0L623.58 0 623.58-27.27 627.63-27.27 627.63-23.15 627.92-23.15Q628.66-25.18 630.61-26.44 632.57-27.7 635.02-27.7L635.02-27.7Q635.48-27.7 636.17-27.68 636.86-27.66 637.22-27.63L637.22-27.63 637.22-23.37Q637.01-23.42 636.25-23.54 635.5-23.65 634.66-23.65L634.66-23.65Q632.67-23.65 631.12-22.82 629.57-22 628.67-20.55 627.77-19.11 627.77-17.26L627.77-17.26 627.77 0ZM646.38-16.41L646.38-16.41 646.38 0 642.19 0 642.19-27.27 646.24-27.27 646.24-23.01 646.59-23.01Q647.55-25.09 649.5-26.36 651.46-27.63 654.55-27.63L654.55-27.63Q657.32-27.63 659.39-26.5 661.47-25.37 662.63-23.09 663.78-20.81 663.78-17.33L663.78-17.33 663.78 0 659.59 0 659.59-17.05Q659.59-20.26 657.92-22.06 656.25-23.86 653.34-23.86L653.34-23.86Q651.33-23.86 649.76-22.99 648.19-22.12 647.28-20.45 646.38-18.79 646.38-16.41ZM682.88 0.57L682.88 0.57Q678.94 0.57 676.09-1.18 673.24-2.93 671.7-6.08 670.17-9.23 670.17-13.42L670.17-13.42Q670.17-17.61 671.7-20.82 673.24-24.02 676-25.83 678.76-27.63 682.46-27.63L682.46-27.63Q684.59-27.63 686.66-26.92 688.74-26.21 690.45-24.62 692.15-23.03 693.16-20.42 694.17-17.81 694.17-13.99L694.17-13.99 694.17-12.22 673.15-12.22 673.15-15.84 689.91-15.84Q689.91-18.15 689-19.96 688.08-21.77 686.41-22.82 684.73-23.86 682.46-23.86L682.46-23.86Q679.95-23.86 678.13-22.63 676.31-21.4 675.34-19.42 674.36-17.45 674.36-15.2L674.36-15.2 674.36-12.78Q674.36-9.69 675.43-7.56 676.51-5.42 678.43-4.31 680.34-3.2 682.88-3.2L682.88-3.2Q684.53-3.2 685.87-3.67 687.21-4.14 688.19-5.09 689.17-6.04 689.7-7.46L689.7-7.46 693.75-6.32Q693.11-4.26 691.6-2.71 690.09-1.15 687.87-0.29 685.65 0.57 682.88 0.57ZM698.29-27.27L712.42-27.27 712.42-23.72 698.29-23.72 698.29-27.27ZM702.41-6.68L702.41-33.81 706.6-33.81 706.6-7.81Q706.6-6.04 707.12-5.16 707.65-4.28 708.47-3.99 709.3-3.69 710.22-3.69L710.22-3.69Q710.92-3.69 711.36-3.77 711.8-3.85 712.07-3.91L712.07-3.91 712.92-0.14Q712.5 0.02 711.73 0.19 710.97 0.36 709.8 0.36L709.8 0.36Q708.02 0.36 706.33-0.41 704.63-1.17 703.52-2.73 702.41-4.3 702.41-6.68L702.41-6.68Z" opacity="1" transform="matrix(1,0,0,1,0,0)" fill="#e0d6de" class="slogan-text-1" data-fill-palette-color="secondary" id="text-1"></path></svg></g></svg></g></svg></g></svg></g><g></g></svg></g></svg></g></svg></g><path d="M0 68.951L0 1 244.431 1 244.431 68.951 238.559 68.951 238.559 6.872 5.872 6.872 5.872 68.951 0 68.951M0 178.249L0 246.2 244.431 246.2 244.431 178.249 238.559 178.249 238.559 240.328 5.872 240.328 5.872 178.249 0 178.249" fill="#e0d6de" stroke="transparent" data-fill-palette-color="tertiary"></path></svg></g><defs></defs></svg><rect width="244.43135999999998" height="247.2" fill="none" stroke="none" visibility="hidden"></rect></g></svg></g></svg>